999
dxflib 2.2.0.0
  0
SECTION
  2
HEADER
  9
$ACADVER
  1
AC1015
  9
$HANDSEED
  5
FFFF
  9
$DIMLIM
 70
0
  9
$DIMLUNIT
 70
2
  9
$DIMTIX
 70
0
  9
$AUNITS
 70
0
  9
$QTEXTMODE
 70
0
  9
$USERR1
 40
0.0
  9
$DIMALTU
 70
2
  9
$UCSORGBOTTOM
 10
0.0
 20
0.0
 30
0.0
  9
$USERR2
 40
0.0
  9
$USERR3
 40
0.0
  9
$USERR4
 40
0.0
  9
$LIMMAX
 10
11.0
 20
8.5
  9
$USERR5
 40
0.0
  9
$PELEVATION
 40
0.0
  9
$DIMALTZ
 70
0
  9
$DIMADEC
 70
2
  9
$JOINSTYLE
280
0
  9
$DIMATFIT
 70
3
  9
$TILEMODE
 70
1
  9
$PEXTMIN
 10
100000000000000000000.0
 20
100000000000000000000.0
 30
100000000000000000000.0
  9
$TDUSRTIMER
 40
0.0000000116
  9
$DWGCODEPAGE
  3
ANSI_1252
  9
$UCSORTHOVIEW
 70
0
  9
$DIMSOXD
 70
0
  9
$DIMTZIN
 70
0
  9
$SPLINETYPE
 70
6
  9
$DIMLFAC
 40
1.0
  9
$DIMSE1
 70
0
  9
$FILLETRAD
 40
0.5
  9
$DIMSE2
 70
0
  9
$PSTYLEMODE
290
1
  9
$TEXTSTYLE
  7
Standard
  9
$DIMTSZ
 40
0.0
  9
$PUCSXDIR
 10
1.0
 20
0.0
 30
0.0
  9
$DIMTXSTY
  7
Standard
  9
$PLIMMAX
 10
12.0
 20
9.0
  9
$DIMTM
 40
0.0
  9
$UCSORG
 10
0.0
 20
0.0
 30
0.0
  9
$DIMTP
 40
0.0
  9
$PSLTSCALE
 70
1
  9
$ANGBASE
 50
0.0
  9
$PUCSYDIR
 10
0.0
 20
1.0
 30
0.0
  9
$EXTNAMES
290
1
  9
$DIMASZ
 40
0.13
  9
$PUCSORTHOVIEW
 70
0
  9
$INSBASE
 10
0.0
 20
0.0
 30
0.0
  9
$UNITMODE
 70
0
  9
$MEASUREMENT
 70
0
  9
$EXTMAX
 10
11.0
 20
8.5
 30
0.0
  9
$ELEVATION
 40
0.0
  9
$TDCREATE
 40
2456959.4202983570285141
  9
$DIMDEC
 70
2
  9
$CELTYPE
  6
ByLayer
  9
$MENU
  1
.
  9
$ANGDIR
 70
0
  9
$DIMALTTD
 70
2
  9
$TREEDEPTH
 70
3020
  9
$LTSCALE
 40
1.0
  9
$PROXYGRAPHICS
 70
1
  9
$DIMTMOVE
 70
0
  9
$DIMAZIN
 70
0
  9
$TDUPDATE
 40
2456959.4202992250211537
  9
$DIMTOLJ
 70
1
  9
$DIMCEN
 40
0.09
  9
$DIMTVP
 40
0.0
  9
$TRACEWID
 40
0.05
  9
$CMLSTYLE
  2
Standard
  9
$DISPSILH
 70
0
  9
$DIMSTYLE
  2
Standard
  9
$SKETCHINC
 40
0.1
  9
$FILLMODE
 70
1
  9
$PLINEGEN
 70
0
  9
$DIMLWD
 70
-2
  9
$THICKNESS
 40
0.0
  9
$DIMLWE
 70
-2
  9
$CELTSCALE
 40
1.0
  9
$PUCSORG
 10
0.0
 20
0.0
 30
0.0
  9
$DIMALTTZ
 70
0
  9
$INSUNITS
 70
1
  9
$UCSORGBACK
 10
0.0
 20
0.0
 30
0.0
  9
$PLINEWID
 40
0.0
  9
$PEXTMAX
 10
-100000000000000000000.0
 20
-100000000000000000000.0
 30
-100000000000000000000.0
  9
$DIMJUST
 70
0
  9
$UCSYDIR
 10
0.0
 20
1.0
 30
0.0
  9
$PUCSORGBACK
 10
0.0
 20
0.0
 30
0.0
  9
$PDSIZE
 40
-1.0
  9
$PUCSORGBOTTOM
 10
0.0
 20
0.0
 30
0.0
  9
$DIMUPT
 70
0
  9
$DIMTAD
 70
0
  9
$UCSXDIR
 10
1.0
 20
0.0
 30
0.0
  9
$MAXACTVP
 70
64
  9
$DIMSAH
 70
0
  9
$TDUCREATE
 40
2456959.7119650230742991
  9
$DIMFRAC
 70
0
  9
$USERI1
 70
0
  9
$USERI2
 70
0
  9
$UCSORGRIGHT
 10
0.0
 20
0.0
 30
0.0
  9
$USERI3
 70
0
  9
$CELWEIGHT
370
-1
  9
$LWDISPLAY
290
1
  9
$SKPOLY
 70
0
  9
$USERI4
 70
0
  9
$USERI5
 70
0
  9
$UCSORGTOP
 10
0.0
 20
0.0
 30
0.0
  9
$LIMMIN
 10
0.0
 20
0.0
  9
$ACADMAINTVER
 70
6
  9
$MIRRTEXT
 70
1
  9
$TDUUPDATE
 40
2456959.7119658910669386
  9
$TEXTSIZE
 40
0.125
  9
$DIMGAP
 40
0.06
  9
$LUPREC
 70
2
  9
$CECOLOR
 62
256
  9
$DIMSD1
 70
0
  9
$DIMSD2
 70
0
  9
$WORLDVIEW
 70
1
  9
$PUCSORGRIGHT
 10
0.0
 20
0.0
 30
0.0
  9
$PLIMCHECK
 70
0
  9
$DIMTFAC
 40
1.0
  9
$CMLJUST
 70
0
  9
$USRTIMER
 70
1
  9
$SURFU
 70
6
  9
$SURFV
 70
6
  9
$DIMASO
 70
1
  9
$DIMDLE
 40
0.0
  9
$EXTMIN
 10
0.0
 20
0.0
 30
0.0
  9
$UCSORGLEFT
 10
0.0
 20
0.0
 30
0.0
  9
$OLESTARTUP
290
0
  9
$PUCSORGFRONT
 10
0.0
 20
0.0
 30
0.0
  9
$DIMDLI
 40
0.38
  9
$LUNITS
 70
2
  9
$DIMCLRD
 70
0
  9
$SHADEDIF
 70
70
  9
$DIMCLRE
 70
0
  9
$SPLINESEGS
 70
8
  9
$PUCSORGLEFT
 10
0.0
 20
0.0
 30
0.0
  9
$DIMALTRND
 40
0.0
  9
$DIMRND
 40
0.0
  9
$DIMALT
 70
0
  9
$FINGERPRINTGUID
  2
{5C6155AE-9066-4703-B90E-7D40F743401B}
  9
$DIMCLRT
 70
0
  9
$PUCSORGTOP
 10
0.0
 20
0.0
 30
0.0
  9
$DIMTOH
 70
1
  9
$UCSORGFRONT
 10
0.0
 20
0.0
 30
0.0
  9
$VISRETAIN
 70
1
  9
$SHADEDGE
 70
3
  9
$DIMTOL
 70
0
  9
$SURFTYPE
 70
6
  9
$VERSIONGUID
  2
{FAEB1C32-E019-11D5-929B-00C0DF256EC4}
  9
$CHAMFERA
 40
0.5
  9
$SURFTAB1
 70
6
  9
$CHAMFERB
 40
0.5
  9
$SURFTAB2
 70
6
  9
$CHAMFERC
 40
1.0
  9
$AUPREC
 70
2
  9
$CHAMFERD
 40
0.0
  9
$DIMTDEC
 70
2
  9
$PDMODE
 70
0
  9
$SPLFRAME
 70
0
  9
$PLIMMIN
 10
0.0
 20
0.0
  9
$XEDIT
290
1
  9
$DIMDSEP
 70
46
  9
$LIMCHECK
 70
0
  9
$PINSBASE
 10
0.0
 20
0.0
 30
0.0
  9
$ORTHOMODE
 70
0
  9
$PSVPSCALE
 40
0.0
  9
$CLAYER
  8
0
  9
$DIMSHO
 70
1
  9
$DIMTOFL
 70
0
  9
$DIMTXT
 40
0.125
  9
$DIMEXE
 40
0.125
  9
$TDINDWG
 40
0.0000000116
  9
$REGENMODE
 70
1
  9
$ATTMODE
 70
1
  9
$CMLSCALE
 40
1.0
  9
$DIMTIH
 70
1
  9
$DIMZIN
 70
0
  9
$CEPSNTYPE
380
0
  9
$DIMSCALE
 40
1.0
  9
$DIMALTD
 70
2
  9
$DIMAUNIT
 70
0
  9
$DIMALTF
 40
25.3999999999999986
  9
$DIMEXO
 40
0.05
  9
$ENDCAPS
280
0
  0
ENDSEC
  0
SECTION
  2
TABLES
  0
TABLE
  2
VPORT
  5
8
100
AcDbSymbolTable
 70
1
  0
VPORT
  5
30
100
AcDbSymbolTableRecord
100
AcDbViewportTableRecord
  2
*Active
 70
0
 10
0.0
 20
0.0
 11
1.0
 21
1.0
 12
286.3055555555554861
 22
148.5
 13
0.0
 23
0.0
 14
10.0
 24
10.0
 15
10.0
 25
10.0
 16
0.0
 26
0.0
 36
1.0
 17
0.0
 27
0.0
 37
0.0
 40
297.0
 41
1.92798353909465
 42
50.0
 43
0.0
 44
0.0
 50
0.0
 51
0.0
 71
0
 72
100
 73
1
 74
3
 75
1
 76
1
 77
0
 78
0
281
0
 65
1
110
0.0
120
0.0
130
0.0
111
1.0
121
0.0
131
0.0
112
0.0
122
1.0
132
0.0
 79
0
146
0.0
  0
ENDTAB
  0
TABLE
  2
LTYPE
  5
5
100
AcDbSymbolTable
 70
21
  0
LTYPE
  5
14
100
AcDbSymbolTableRecord
100
AcDbLinetypeTableRecord
  2
ByBlock
 70
0
  3

 72
65
 73
0
 40
0.0
  0
LTYPE
  5
15
100
AcDbSymbolTableRecord
100
AcDbLinetypeTableRecord
  2
ByLayer
 70
0
  3

 72
65
 73
0
 40
0.0
  0
LTYPE
  5
16
100
AcDbSymbolTableRecord
100
AcDbLinetypeTableRecord
  2
CONTINUOUS
 70
0
  3
Solid line
 72
65
 73
0
 40
0.0
  0
LTYPE
  5
31
100
AcDbSymbolTableRecord
100
AcDbLinetypeTableRecord
  2
DOT
 70
0
  3
Dot . . . . . . . . . . . . . . . . . . . . . .
 72
65
 73
2
 40
6.3499999999999996
 49
0.0
 74
0
 49
-6.3499999999999996
 74
0
  0
LTYPE
  5
32
100
AcDbSymbolTableRecord
100
AcDbLinetypeTableRecord
  2
DOT2
 70
0
  3
Dot (.5x) .....................................
 72
65
 73
2
 40
3.1749999999999998
 49
0.0
 74
0
 49
-3.1749999999999998
 74
0
  0
LTYPE
  5
33
100
AcDbSymbolTableRecord
100
AcDbLinetypeTableRecord
  2
DOTX2
 70
0
  3
Dot (2x) .  .  .  .  .  .  .  .  .  .  .  .  .
 72
65
 73
2
 40
12.6999999999999993
 49
0.0
 74
0
 49
-12.6999999999999993
 74
0
  0
LTYPE
  5
34
100
AcDbSymbolTableRecord
100
AcDbLinetypeTableRecord
  2
DASHED
 70
0
  3
Dashed __ __ __ __ __ __ __ __ __ __ __ __ __ _
 72
65
 73
2
 40
19.0500000000000007
 49
12.6999999999999993
 74
0
 49
-6.3499999999999996
 74
0
  0
LTYPE
  5
35
100
AcDbSymbolTableRecord
100
AcDbLinetypeTableRecord
  2
DASHED2
 70
0
  3
Dashed (.5x) _ _ _ _ _ _ _ _ _ _ _ _ _ _ _ _ _
 72
65
 73
2
 40
9.5250000000000004
 49
6.3499999999999996
 74
0
 49
-3.1749999999999998
 74
0
  0
LTYPE
  5
36
100
AcDbSymbolTableRecord
100
AcDbLinetypeTableRecord
  2
DASHEDX2
 70
0
  3
Dashed (2x) ____  ____  ____  ____  ____  ___
 72
65
 73
2
 40
38.1000000000000014
 49
25.3999999999999986
 74
0
 49
-12.6999999999999993
 74
0
  0
LTYPE
  5
37
100
AcDbSymbolTableRecord
100
AcDbLinetypeTableRecord
  2
DASHDOT
 70
0
  3
Dash dot __ . __ . __ . __ . __ . __ . __ . __
 72
65
 73
4
 40
25.3999999999999986
 49
12.6999999999999993
 74
0
 49
-6.3499999999999996
 74
0
 49
0.0
 74
0
 49
-6.3499999999999996
 74
0
  0
LTYPE
  5
38
100
AcDbSymbolTableRecord
100
AcDbLinetypeTableRecord
  2
DASHDOT2
 70
0
  3
Dash dot (.5x) _._._._._._._._._._._._._._._.
 72
65
 73
4
 40
12.6999999999999993
 49
6.3499999999999996
 74
0
 49
-3.1749999999999998
 74
0
 49
0.0
 74
0
 49
-3.1749999999999998
 74
0
  0
LTYPE
  5
39
100
AcDbSymbolTableRecord
100
AcDbLinetypeTableRecord
  2
DASHDOTX2
 70
0
  3
Dash dot (2x) ____  .  ____  .  ____  .  ___
 72
65
 73
4
 40
50.7999999999999972
 49
25.3999999999999986
 74
0
 49
-12.6999999999999993
 74
0
 49
0.0
 74
0
 49
-12.6999999999999993
 74
0
  0
LTYPE
  5
3A
100
AcDbSymbolTableRecord
100
AcDbLinetypeTableRecord
  2
DIVIDE
 70
0
  3
Divide ____ . . ____ . . ____ . . ____ . . ____
 72
65
 73
6
 40
31.75
 49
12.6999999999999993
 74
0
 49
-6.3499999999999996
 74
0
 49
0.0
 74
0
 49
-6.3499999999999996
 74
0
 49
0.0
 74
0
 49
-6.3499999999999996
 74
0
  0
LTYPE
  5
3B
100
AcDbSymbolTableRecord
100
AcDbLinetypeTableRecord
  2
DIVIDE2
 70
0
  3
Divide (.5x) __..__..__..__..__..__..__..__.._
 72
65
 73
6
 40
15.875
 49
6.3499999999999996
 74
0
 49
-3.1749999999999998
 74
0
 49
0.0
 74
0
 49
-3.1749999999999998
 74
0
 49
0.0
 74
0
 49
-3.1749999999999998
 74
0
  0
LTYPE
  5
3C
100
AcDbSymbolTableRecord
100
AcDbLinetypeTableRecord
  2
DIVIDEX2
 70
0
  3
Divide (2x) ________  .  .  ________  .  .  _
 72
65
 73
6
 40
63.5
 49
25.3999999999999986
 74
0
 49
-12.6999999999999993
 74
0
 49
0.0
 74
0
 49
-12.6999999999999993
 74
0
 49
0.0
 74
0
 49
-12.6999999999999993
 74
0
  0
LTYPE
  5
3D
100
AcDbSymbolTableRecord
100
AcDbLinetypeTableRecord
  2
CENTER
 70
0
  3
Center ____ _ ____ _ ____ _ ____ _ ____ _ ____
 72
65
 73
4
 40
50.7999999999999972
 49
31.75
 74
0
 49
-6.3499999999999996
 74
0
 49
6.3499999999999996
 74
0
 49
-6.3499999999999996
 74
0
  0
LTYPE
  5
3E
100
AcDbSymbolTableRecord
100
AcDbLinetypeTableRecord
  2
CENTER2
 70
0
  3
Center (.5x) ___ _ ___ _ ___ _ ___ _ ___ _ ___
 72
65
 73
4
 40
28.5749999999999993
 49
19.0500000000000007
 74
0
 49
-3.1749999999999998
 74
0
 49
3.1749999999999998
 74
0
 49
-3.1749999999999998
 74
0
  0
LTYPE
  5
3F
100
AcDbSymbolTableRecord
100
AcDbLinetypeTableRecord
  2
CENTERX2
 70
0
  3
Center (2x) ________  __  ________  __  _____
 72
65
 73
4
 40
101.5999999999999943
 49
63.5
 74
0
 49
-12.6999999999999993
 74
0
 49
12.6999999999999993
 74
0
 49
-12.6999999999999993
 74
0
  0
LTYPE
  5
40
100
AcDbSymbolTableRecord
100
AcDbLinetypeTableRecord
  2
BORDER
 70
0
  3
Border __ __ . __ __ . __ __ . __ __ . __ __ .
 72
65
 73
6
 40
44.4500000000000028
 49
12.6999999999999993
 74
0
 49
-6.3499999999999996
 74
0
 49
12.6999999999999993
 74
0
 49
-6.3499999999999996
 74
0
 49
0.0
 74
0
 49
-6.3499999999999996
 74
0
  0
LTYPE
  5
41
100
AcDbSymbolTableRecord
100
AcDbLinetypeTableRecord
  2
BORDER2
 70
0
  3
Border (.5x) __.__.__.__.__.__.__.__.__.__.__.
 72
65
 73
6
 40
22.2250000000000014
 49
6.3499999999999996
 74
0
 49
-3.1749999999999998
 74
0
 49
6.3499999999999996
 74
0
 49
-3.1749999999999998
 74
0
 49
0.0
 74
0
 49
-3.1749999999999998
 74
0
  0
LTYPE
  5
42
100
AcDbSymbolTableRecord
100
AcDbLinetypeTableRecord
  2
BORDERX2
 70
0
  3
Border (2x) ____  ____  .  ____  ____  .  ___
 72
65
 73
6
 40
88.9000000000000057
 49
25.3999999999999986
 74
0
 49
-12.6999999999999993
 74
0
 49
25.3999999999999986
 74
0
 49
-12.6999999999999993
 74
0
 49
0.0
 74
0
 49
-12.6999999999999993
 74
0
  0
ENDTAB
  0
TABLE
  2
LAYER
  5
2
100
AcDbSymbolTable
 70
2
  0
LAYER
  5
10
100
AcDbSymbolTableRecord
100
AcDbLayerTableRecord
  2
0
 70
0
 62
7
  6
CONTINUOUS
370
0
390
F
  0
LAYER
  5
43
100
AcDbSymbolTableRecord
100
AcDbLayerTableRecord
  2
FORMAT
 70
0
 62
7
  6
CONTINUOUS
370
0
390
F
  0
ENDTAB
  0
TABLE
  2
STYLE
  5
3
100
AcDbSymbolTable
 70
1
  0
STYLE
  5
11
100
AcDbSymbolTableRecord
100
AcDbTextStyleTableRecord
  2
Standard
 70
0
 40
0.0
 41
0.75
 50
0.0
 71
0
 42
2.5
  3
txt
  4

  0
ENDTAB
  0
TABLE
  2
VIEW
  5
6
100
AcDbSymbolTable
 70
0
  0
ENDTAB
  0
TABLE
  2
UCS
  5
7
100
AcDbSymbolTable
 70
0
  0
ENDTAB
  0
TABLE
  2
APPID
  5
9
100
AcDbSymbolTable
 70
1
  0
APPID
  5
12
100
AcDbSymbolTableRecord
100
AcDbRegAppTableRecord
  2
ACAD
 70
0
  0
ENDTAB
  0
TABLE
  2
DIMSTYLE
  5
A
100
AcDbSymbolTable
 70
1
100
AcDbDimStyleTable
 71
0
  0
DIMSTYLE
105
27
100
AcDbSymbolTableRecord
100
AcDbDimStyleTableRecord
  2
Standard
 41
0.13
 42
0.05
 43
3.75
 44
0.125
 70
0
 73
0
 74
0
 77
1
 78
8
140
0.125
141
2.5
143
0.03937007874016
147
0.06
171
3
172
1
271
2
272
2
274
3
278
44
283
0
284
8
340
11
  0
ENDTAB
  0
TABLE
  2
BLOCK_RECORD
  5
1
100
AcDbSymbolTable
 70
1
  0
BLOCK_RECORD
  5
1F
100
AcDbSymbolTableRecord
100
AcDbBlockTableRecord
  2
*Model_Space
340
22
  0
BLOCK_RECORD
  5
1B
100
AcDbSymbolTableRecord
100
AcDbBlockTableRecord
  2
*Paper_Space
340
1E
  0
BLOCK_RECORD
  5
23
100
AcDbSymbolTableRecord
100
AcDbBlockTableRecord
  2
*Paper_Space0
340
26
  0
BLOCK_RECORD
  5
44
100
AcDbSymbolTableRecord
100
AcDbBlockTableRecord
  2
SW_NOTE_0
340
0
  0
BLOCK_RECORD
  5
45
100
AcDbSymbolTableRecord
100
AcDbBlockTableRecord
  2
SW_NOTE_1
340
0
  0
BLOCK_RECORD
  5
46
100
AcDbSymbolTableRecord
100
AcDbBlockTableRecord
  2
SW_NOTE_2
340
0
  0
BLOCK_RECORD
  5
47
100
AcDbSymbolTableRecord
100
AcDbBlockTableRecord
  2
_D
340
0
  0
BLOCK_RECORD
  5
48
100
AcDbSymbolTableRecord
100
AcDbBlockTableRecord
  2
_D_1
340
0
  0
BLOCK_RECORD
  5
49
100
AcDbSymbolTableRecord
100
AcDbBlockTableRecord
  2
_D_2
340
0
  0
BLOCK_RECORD
  5
4A
100
AcDbSymbolTableRecord
100
AcDbBlockTableRecord
  2
_D_3
340
0
  0
ENDTAB
  0
ENDSEC
  0
SECTION
  2
BLOCKS
  0
BLOCK
  5
20
100
AcDbEntity
  8
0
100
AcDbBlockBegin
  2
*Model_Space
 70
0
 10
0.0
 20
0.0
 30
0.0
  3
*Model_Space
  1

  0
ENDBLK
  5
21
100
AcDbEntity
  8
0
100
AcDbBlockEnd
  0
BLOCK
  5
1C
100
AcDbEntity
 67
1
  8
0
100
AcDbBlockBegin
  2
*Paper_Space
 70
0
 10
0.0
 20
0.0
 30
0.0
  3
*Paper_Space
  1

  0
ENDBLK
  5
1D
100
AcDbEntity
 67
1
  8
0
100
AcDbBlockEnd
  0
BLOCK
  5
24
100
AcDbEntity
  8
0
100
AcDbBlockBegin
  2
*Paper_Space0
 70
0
 10
0.0
 20
0.0
 30
0.0
  3
*Paper_Space0
  1

  0
ENDBLK
  5
25
100
AcDbEntity
  8
0
100
AcDbBlockEnd
  0
BLOCK
  5
4B
100
AcDbEntity
  8
0
100
AcDbBlockBegin
  2
SW_NOTE_0
 70
0
 10
0.0
 20
0.0
 30
0.0
  3
SW_NOTE_0
  1

  0
MTEXT
  5
4C
100
AcDbEntity
100
AcDbMText
  8
0
 62
0
370
0
  6
CONTINUOUS
 10
0.0
 20
0.0773440644
 30
0.0
 40
0.06
 41
0.0
 71
1
 72
0
  1
INTERPRET GEOMETRIC
  7
sldtextstyle0
 50
0.0
 73
0
 44
1.0
  0
MTEXT
  5
4D
100
AcDbEntity
100
AcDbMText
  8
0
 62
0
370
0
  6
CONTINUOUS
 10
0.0
 20
-0.0220260102
 30
0.0
 40
0.06
 41
0.0
 71
1
 72
0
  1
TOLERANCING PER:
  7
sldtextstyle0
 50
0.0
 73
0
 44
1.0
  0
ENDBLK
  5
4E
100
AcDbEntity
  8
0
100
AcDbBlockEnd
  0
BLOCK
  5
4F
100
AcDbEntity
  8
0
100
AcDbBlockBegin
  2
SW_NOTE_1
 70
0
 10
0.0
 20
0.0
 30
0.0
  3
SW_NOTE_1
  1

  0
MTEXT
  5
50
100
AcDbEntity
100
AcDbMText
  8
0
 62
0
370
0
  6
CONTINUOUS
 10
0.0
 20
0.0837894031
 30
0.0
 40
0.065
 41
0.0
 71
1
 72
0
  1
DIMENSIONS ARE IN INCHES
  7
sldtextstyle0
 50
0.0
 73
0
 44
1.0
  0
MTEXT
  5
51
100
AcDbEntity
100
AcDbMText
  8
0
 62
0
370
0
  6
CONTINUOUS
 10
0.0
 20
-0.0205806729
 30
0.0
 40
0.065
 41
0.0
 71
1
 72
0
  1
TOLERANCES:
  7
sldtextstyle0
 50
0.0
 73
0
 44
1.0
  0
MTEXT
  5
52
100
AcDbEntity
100
AcDbMText
  8
0
 62
0
370
0
  6
CONTINUOUS
 10
0.0
 20
-0.1249507489
 30
0.0
 40
0.065
 41
0.0
 71
1
 72
0
  1
FRACTIONAL
  7
sldtextstyle0
 50
0.0
 73
0
 44
1.0
  0
MTEXT
  5
53
100
AcDbEntity
100
AcDbMText
  8
0
 62
0
370
0
  6
CONTINUOUS
 10
0.5175850875
 20
-0.1249507489
 30
0.0
 40
0.065
 41
0.0
 71
1
 72
0
  1
%%p
  7
sldtextstyle0
 50
0.0
 73
0
 44
1.0
  0
MTEXT
  5
54
100
AcDbEntity
100
AcDbMText
  8
0
 62
0
370
0
  6
CONTINUOUS
 10
0.0
 20
-0.2293208248
 30
0.0
 40
0.065
 41
0.0
 71
1
 72
0
  1
ANGULAR: MACH
  7
sldtextstyle0
 50
0.0
 73
0
 44
1.0
  0
MTEXT
  5
55
100
AcDbEntity
100
AcDbMText
  8
0
 62
0
370
0
  6
CONTINUOUS
 10
0.7233732769
 20
-0.2293208248
 30
0.0
 40
0.065
 41
0.0
 71
1
 72
0
  1
%%p
  7
sldtextstyle0
 50
0.0
 73
0
 44
1.0
  0
MTEXT
  5
56
100
AcDbEntity
100
AcDbMText
  8
0
 62
0
370
0
  6
CONTINUOUS
 10
0.9071607683
 20
-0.2293208248
 30
0.0
 40
0.065
 41
0.0
 71
1
 72
0
  1
BEND
  7
sldtextstyle0
 50
0.0
 73
0
 44
1.0
  0
MTEXT
  5
57
100
AcDbEntity
100
AcDbMText
  8
0
 62
0
370
0
  6
CONTINUOUS
 10
1.1478413599999999
 20
-0.2293208248
 30
0.0
 40
0.065
 41
0.0
 71
1
 72
0
  1
%%p
  7
sldtextstyle0
 50
0.0
 73
0
 44
1.0
  0
MTEXT
  5
58
100
AcDbEntity
100
AcDbMText
  8
0
 62
0
370
0
  6
CONTINUOUS
 10
0.0
 20
-0.3336909008
 30
0.0
 40
0.065
 41
0.0
 71
1
 72
0
  1
TWO PLACE DECIMAL
  7
sldtextstyle0
 50
0.0
 73
0
 44
1.0
  0
MTEXT
  5
59
100
AcDbEntity
100
AcDbMText
  8
0
 62
0
370
0
  6
CONTINUOUS
 10
0.9794349188
 20
-0.3336909008
 30
0.0
 40
0.065
 41
0.0
 71
1
 72
0
  1
%%p
  7
sldtextstyle0
 50
0.0
 73
0
 44
1.0
  0
MTEXT
  5
5A
100
AcDbEntity
100
AcDbMText
  8
0
 62
0
370
0
  6
CONTINUOUS
 10
0.0
 20
-0.4380609768
 30
0.0
 40
0.065
 41
0.0
 71
1
 72
0
  1
THREE PLACE DECIMAL
  7
sldtextstyle0
 50
0.0
 73
0
 44
1.0
  0
MTEXT
  5
5B
100
AcDbEntity
100
AcDbMText
  8
0
 62
0
370
0
  6
CONTINUOUS
 10
0.9738038639
 20
-0.4380609768
 30
0.0
 40
0.065
 41
0.0
 71
1
 72
0
  1
%%p
  7
sldtextstyle0
 50
0.0
 73
0
 44
1.0
  0
ENDBLK
  5
5C
100
AcDbEntity
  8
0
100
AcDbBlockEnd
  0
BLOCK
  5
5D
100
AcDbEntity
  8
0
100
AcDbBlockBegin
  2
SW_NOTE_2
 70
0
 10
0.0
 20
0.0
 30
0.0
  3
SW_NOTE_2
  1

  0
MTEXT
  5
5E
100
AcDbEntity
100
AcDbMText
  8
0
 62
0
370
0
  6
CONTINUOUS
 10
0.0
 20
0.0773440644
 30
0.0
 40
0.06
 41
0.0
 71
1
 72
0
  1
THE INFORMATION CONTAINED IN THIS
  7
sldtextstyle0
 50
0.0
 73
0
 44
1.0
  0
MTEXT
  5
5F
100
AcDbEntity
100
AcDbMText
  8
0
 62
0
370
0
  6
CONTINUOUS
 10
0.0
 20
-0.0220260102
 30
0.0
 40
0.06
 41
0.0
 71
1
 72
0
  1
DRAWING IS THE SOLE PROPERTY OF
  7
sldtextstyle0
 50
0.0
 73
0
 44
1.0
  0
MTEXT
  5
60
100
AcDbEntity
100
AcDbMText
  8
0
 62
0
370
0
  6
CONTINUOUS
 10
0.0
 20
-0.1213960848
 30
0.0
 40
0.06
 41
0.0
 71
1
 72
0
  1
<INSERT COMPANY NAME HERE>.  ANY
  7
sldtextstyle0
 50
0.0
 73
0
 44
1.0
  0
MTEXT
  5
61
100
AcDbEntity
100
AcDbMText
  8
0
 62
0
370
0
  6
CONTINUOUS
 10
0.0
 20
-0.2207661593
 30
0.0
 40
0.06
 41
0.0
 71
1
 72
0
  1
REPRODUCTION IN PART OR AS A WHOLE
  7
sldtextstyle0
 50
0.0
 73
0
 44
1.0
  0
MTEXT
  5
62
100
AcDbEntity
100
AcDbMText
  8
0
 62
0
370
0
  6
CONTINUOUS
 10
0.0
 20
-0.3201362339
 30
0.0
 40
0.06
 41
0.0
 71
1
 72
0
  1
WITHOUT THE WRITTEN PERMISSION OF
  7
sldtextstyle0
 50
0.0
 73
0
 44
1.0
  0
MTEXT
  5
63
100
AcDbEntity
100
AcDbMText
  8
0
 62
0
370
0
  6
CONTINUOUS
 10
0.0
 20
-0.4195063085
 30
0.0
 40
0.06
 41
0.0
 71
1
 72
0
  1
<INSERT COMPANY NAME HERE> IS
  7
sldtextstyle0
 50
0.0
 73
0
 44
1.0
  0
MTEXT
  5
64
100
AcDbEntity
100
AcDbMText
  8
0
 62
0
370
0
  6
CONTINUOUS
 10
0.0
 20
-0.5188763830000001
 30
0.0
 40
0.06
 41
0.0
 71
1
 72
0
  1
PROHIBITED.
  7
sldtextstyle0
 50
0.0
 73
0
 44
1.0
  0
ENDBLK
  5
65
100
AcDbEntity
  8
0
100
AcDbBlockEnd
  0
BLOCK
  5
66
100
AcDbEntity
  8
0
100
AcDbBlockBegin
  2
_D
 70
0
 10
0.0
 20
0.0
 30
0.0
  3
_D
  1

  0
LINE
  5
67
100
AcDbEntity
100
AcDbLine
  8
0
 62
7
370
0
  6
CONTINUOUS
 10
4.2080418091
 20
6.3125106605000001
 30
0.0
 11
5.3854040137999997
 21
6.3125106605000001
 31
0.0
  0
LINE
  5
68
100
AcDbEntity
100
AcDbLine
  8
0
 62
7
370
0
  6
CONTINUOUS
 10
4.2080418091
 20
7.3814517104000004
 30
0.0
 11
5.3854040137999997
 21
7.3814517104000004
 31
0.0
  0
LINE
  5
69
100
AcDbEntity
100
AcDbLine
  8
0
 62
7
370
0
  6
CONTINUOUS
 10
5.2604040137999997
 20
6.3125106605000001
 30
0.0
 11
5.2604040137999997
 21
6.7477624325000001
 31
0.0
  0
LINE
  5
6A
100
AcDbEntity
100
AcDbLine
  8
0
 62
7
370
0
  6
CONTINUOUS
 10
5.2604040137999997
 20
7.3814517104000004
 30
0.0
 11
5.2604040137999997
 21
6.9461999385000004
 31
0.0
  0
MTEXT
  5
6B
100
AcDbEntity
100
AcDbMText
  8
0
 62
7
370
0
  6
CONTINUOUS
 10
5.0018102745000004
 20
6.9088958931000004
 30
0.0
 40
0.125
 41
0.0
 71
1
 72
0
  1
1.069
  7
sldtextstyle0
 50
0.0
 73
0
 44
1.0
  0
ENDBLK
  5
6C
100
AcDbEntity
  8
0
100
AcDbBlockEnd
  0
BLOCK
  5
6D
100
AcDbEntity
  8
0
100
AcDbBlockBegin
  2
_D_1
 70
0
 10
0.0
 20
0.0
 30
0.0
  3
_D_1
  1

  0
LINE
  5
6E
100
AcDbEntity
100
AcDbLine
  8
0
 62
7
370
0
  6
CONTINUOUS
 10
1.0871756673999999
 20
6.2625106605000003
 30
0.0
 11
1.0871756673999999
 21
5.7938098730999998
 31
0.0
  0
LINE
  5
6F
100
AcDbEntity
100
AcDbLine
  8
0
 62
7
370
0
  6
CONTINUOUS
 10
4.1580418091000002
 20
6.2625106605000003
 30
0.0
 11
4.1580418091000002
 21
5.7938098730999998
 31
0.0
  0
LINE
  5
70
100
AcDbEntity
100
AcDbLine
  8
0
 62
7
370
0
  6
CONTINUOUS
 10
1.0871756673999999
 20
5.9188098730999998
 30
0.0
 11
2.4024203145
 21
5.9188098730999998
 31
0.0
  0
LINE
  5
71
100
AcDbEntity
100
AcDbLine
  8
0
 62
7
370
0
  6
CONTINUOUS
 10
4.1580418091000002
 20
5.9188098730999998
 30
0.0
 11
2.9196077932
 21
5.9188098730999998
 31
0.0
  0
MTEXT
  5
72
100
AcDbEntity
100
AcDbMText
  8
0
 62
7
370
0
  6
CONTINUOUS
 10
2.4024203145
 20
5.9807245806999996
 30
0.0
 40
0.125
 41
0.0
 71
1
 72
0
  1
3.071
  7
sldtextstyle0
 50
0.0
 73
0
 44
1.0
  0
ENDBLK
  5
73
100
AcDbEntity
  8
0
100
AcDbBlockEnd
  0
BLOCK
  5
74
100
AcDbEntity
  8
0
100
AcDbBlockBegin
  2
_D_2
 70
0
 10
0.0
 20
0.0
 30
0.0
  3
_D_2
  1

  0
LINE
  5
75
100
AcDbEntity
100
AcDbLine
  8
0
 62
7
370
0
  6
CONTINUOUS
 10
2.6082386595
 20
6.9522549534999998
 30
0.0
 11
2.6082386595
 21
7.9001524977999997
 31
0.0
  0
LINE
  5
76
100
AcDbEntity
100
AcDbLine
  8
0
 62
7
370
0
  6
CONTINUOUS
 10
2.6369788170000001
 20
6.9522549534999998
 30
0.0
 11
2.6369788170000001
 21
7.9001524977999997
 31
0.0
  0
LINE
  5
77
100
AcDbEntity
100
AcDbLine
  8
0
 62
7
370
0
  6
CONTINUOUS
 10
2.6082386595
 20
7.7751524977999997
 30
0.0
 11
2.4617568151000002
 21
7.7751524977999997
 31
0.0
  0
LINE
  5
78
100
AcDbEntity
100
AcDbLine
  8
0
 62
7
370
0
  6
CONTINUOUS
 10
2.6369788170000001
 20
7.7751524977999997
 30
0.0
 11
2.6082386595
 21
7.7751524977999997
 31
0.0
  0
MTEXT
  5
79
100
AcDbEntity
100
AcDbMText
  8
0
 62
7
370
0
  6
CONTINUOUS
 10
2.0369304293999999
 20
7.8370672054000003
 30
0.0
 40
0.125
 41
0.0
 71
1
 72
0
  1
.029
  7
sldtextstyle0
 50
0.0
 73
0
 44
1.0
  0
ENDBLK
  5
7A
100
AcDbEntity
  8
0
100
AcDbBlockEnd
  0
BLOCK
  5
7B
100
AcDbEntity
  8
0
100
AcDbBlockBegin
  2
_D_3
 70
0
 10
0.0
 20
0.0
 30
0.0
  3
_D_3
  1

  0
LINE
  5
7C
100
AcDbEntity
100
AcDbLine
  8
0
 62
7
370
0
  6
CONTINUOUS
 10
1.0371756673999999
 20
6.8825426847999998
 30
0.0
 11
0.8523001553
 21
6.8825426847999998
 31
0.0
  0
LINE
  5
7D
100
AcDbEntity
100
AcDbLine
  8
0
 62
7
370
0
  6
CONTINUOUS
 10
1.0371756673999999
 20
6.7844226863000001
 30
0.0
 11
0.8523001553
 21
6.7844226863000001
 31
0.0
  0
LINE
  5
7E
100
AcDbEntity
100
AcDbLine
  8
0
 62
7
370
0
  6
CONTINUOUS
 10
0.7273001553
 20
7.0858352828999998
 30
0.0
 11
0.9773001553
 21
7.0858352828999998
 31
0.0
  0
LINE
  5
7F
100
AcDbEntity
100
AcDbLine
  8
0
 62
7
370
0
  6
CONTINUOUS
 10
0.9773001553
 20
7.0858352828999998
 30
0.0
 11
0.9773001553
 21
6.8825426847999998
 31
0.0
  0
LINE
  5
80
100
AcDbEntity
100
AcDbLine
  8
0
 62
7
370
0
  6
CONTINUOUS
 10
0.9773001553
 20
6.7844226863000001
 30
0.0
 11
0.9773001553
 21
6.5344226863000001
 31
0.0
  0
MTEXT
  5
81
100
AcDbEntity
100
AcDbMText
  8
0
 62
7
370
0
  6
CONTINUOUS
 10
0.3024737696
 20
7.1477499906000004
 30
0.0
 40
0.125
 41
0.0
 71
1
 72
0
  1
.098
  7
sldtextstyle0
 50
0.0
 73
0
 44
1.0
  0
ENDBLK
  5
82
100
AcDbEntity
  8
0
100
AcDbBlockEnd
  0
ENDSEC
  0
SECTION
  2
ENTITIES
  0
LINE
  5
83
100
AcDbEntity
100
AcDbLine
  8
0
 62
7
370
15
  6
CONTINUOUS
 10
2.6369788170000001
 20
6.9022549535
 30
0.0
 11
2.6082386595
 21
6.9022549535
 31
0.0
  0
LINE
  5
84
100
AcDbEntity
100
AcDbLine
  8
0
 62
7
370
15
  6
CONTINUOUS
 10
2.6082386595
 20
6.9022549535
 30
0.0
 11
2.6082386595
 21
6.8628307750999999
 31
0.0
  0
LINE
  5
85
100
AcDbEntity
100
AcDbLine
  8
0
 62
7
370
15
  6
CONTINUOUS
 10
2.6082386595
 20
6.8628307750999999
 30
0.0
 11
2.6369788170000001
 21
6.8628307750999999
 31
0.0
  0
LINE
  5
86
100
AcDbEntity
100
AcDbLine
  8
0
 62
7
370
15
  6
CONTINUOUS
 10
2.6369788170000001
 20
6.8628307750999999
 30
0.0
 11
2.6369788170000001
 21
6.9022549535
 31
0.0
  0
LINE
  5
87
100
AcDbEntity
100
AcDbLine
  8
0
 62
7
370
15
  6
CONTINUOUS
 10
3.1318607067999999
 20
7.2524712904999999
 30
0.0
 11
3.0556796043999999
 21
7.2524712904999999
 31
0.0
  0
LINE
  5
88
100
AcDbEntity
100
AcDbLine
  8
0
 62
7
370
15
  6
CONTINUOUS
 10
3.0556796043999999
 20
7.2524712904999999
 30
0.0
 11
3.0556796043999999
 21
7.2473531802000002
 31
0.0
  0
LINE
  5
89
100
AcDbEntity
100
AcDbLine
  8
0
 62
7
370
15
  6
CONTINUOUS
 10
3.0556796043999999
 20
7.2473531802000002
 30
0.0
 11
3.1344197618999998
 21
7.2473531802000002
 31
0.0
  0
LINE
  5
8A
100
AcDbEntity
100
AcDbLine
  8
0
 62
7
370
15
  6
CONTINUOUS
 10
3.1344197618999998
 20
6.8849516054000004
 30
0.0
 11
3.0556796043999999
 21
6.8849516054000004
 31
0.0
  0
LINE
  5
8B
100
AcDbEntity
100
AcDbLine
  8
0
 62
7
370
15
  6
CONTINUOUS
 10
3.0556796043999999
 20
6.8849516054000004
 30
0.0
 11
3.0556796043999999
 21
6.8802271959999999
 31
0.0
  0
LINE
  5
8C
100
AcDbEntity
100
AcDbLine
  8
0
 62
7
370
15
  6
CONTINUOUS
 10
3.0556796043999999
 20
6.8802271959999999
 30
0.0
 11
3.1318607067999999
 21
6.8802271959999999
 31
0.0
  0
LINE
  5
8D
100
AcDbEntity
100
AcDbLine
  8
0
 62
7
370
15
  6
CONTINUOUS
 10
3.1318607067999999
 20
6.8802271959999999
 30
0.0
 11
3.1318607067999999
 21
6.7869201093999996
 31
0.0
  0
LINE
  5
8E
100
AcDbEntity
100
AcDbLine
  8
0
 62
7
370
15
  6
CONTINUOUS
 10
3.1318607067999999
 20
6.7869201093999996
 30
0.0
 11
3.0556796043999999
 21
6.7869201093999996
 31
0.0
  0
LINE
  5
8F
100
AcDbEntity
100
AcDbLine
  8
0
 62
7
370
15
  6
CONTINUOUS
 10
3.0556796043999999
 20
6.7869201093999996
 30
0.0
 11
3.0556796043999999
 21
6.7818019990999998
 31
0.0
  0
LINE
  5
90
100
AcDbEntity
100
AcDbLine
  8
0
 62
7
370
15
  6
CONTINUOUS
 10
3.0556796043999999
 20
6.7818019990999998
 30
0.0
 11
3.1344197618999998
 21
6.7818019990999998
 31
0.0
  0
LINE
  5
91
100
AcDbEntity
100
AcDbLine
  8
0
 62
7
370
15
  6
CONTINUOUS
 10
3.1344197618999998
 20
6.3125106605000001
 30
0.0
 11
2.1107977145999999
 21
6.3125106605000001
 31
0.0
  0
LINE
  5
92
100
AcDbEntity
100
AcDbLine
  8
0
 62
7
370
15
  6
CONTINUOUS
 10
2.1107977145999999
 20
6.7818019990999998
 30
0.0
 11
2.1895378720999998
 21
6.7818019990999998
 31
0.0
  0
LINE
  5
93
100
AcDbEntity
100
AcDbLine
  8
0
 62
7
370
15
  6
CONTINUOUS
 10
2.1895378720999998
 20
6.7818019990999998
 30
0.0
 11
2.1895378720999998
 21
6.7869201093999996
 31
0.0
  0
LINE
  5
94
100
AcDbEntity
100
AcDbLine
  8
0
 62
7
370
15
  6
CONTINUOUS
 10
2.1895378720999998
 20
6.7869201093999996
 30
0.0
 11
2.1133567697000002
 21
6.7869201093999996
 31
0.0
  0
LINE
  5
95
100
AcDbEntity
100
AcDbLine
  8
0
 62
7
370
15
  6
CONTINUOUS
 10
2.1133567697000002
 20
6.7869201093999996
 30
0.0
 11
2.1133567697000002
 21
6.8798334951999998
 31
0.0
  0
LINE
  5
96
100
AcDbEntity
100
AcDbLine
  8
0
 62
7
370
15
  6
CONTINUOUS
 10
2.1133567697000002
 20
6.8798334951999998
 30
0.0
 11
2.1895378720999998
 21
6.8798334951999998
 31
0.0
  0
LINE
  5
97
100
AcDbEntity
100
AcDbLine
  8
0
 62
7
370
15
  6
CONTINUOUS
 10
2.1895378720999998
 20
6.8798334951999998
 30
0.0
 11
2.1895378720999998
 21
6.8849516054000004
 31
0.0
  0
LINE
  5
98
100
AcDbEntity
100
AcDbLine
  8
0
 62
7
370
15
  6
CONTINUOUS
 10
2.1895378720999998
 20
6.8849516054000004
 30
0.0
 11
2.1107977145999999
 21
6.8849516054000004
 31
0.0
  0
LINE
  5
99
100
AcDbEntity
100
AcDbLine
  8
0
 62
7
370
15
  6
CONTINUOUS
 10
2.1107977145999999
 20
7.2473531802000002
 30
0.0
 11
2.1895378720999998
 21
7.2473531802000002
 31
0.0
  0
LINE
  5
9A
100
AcDbEntity
100
AcDbLine
  8
0
 62
7
370
15
  6
CONTINUOUS
 10
2.1895378720999998
 20
7.2473531802000002
 30
0.0
 11
2.1895378720999998
 21
7.2524712904999999
 31
0.0
  0
LINE
  5
9B
100
AcDbEntity
100
AcDbLine
  8
0
 62
7
370
15
  6
CONTINUOUS
 10
2.1895378720999998
 20
7.2524712904999999
 30
0.0
 11
2.1133567697000002
 21
7.2524712904999999
 31
0.0
  0
LINE
  5
9C
100
AcDbEntity
100
AcDbLine
  8
0
 62
7
370
15
  6
CONTINUOUS
 10
2.1133567697000002
 20
7.2524712904999999
 30
0.0
 11
2.1133567697000002
 21
7.3814517104000004
 31
0.0
  0
LINE
  5
9D
100
AcDbEntity
100
AcDbLine
  8
0
 62
7
370
15
  6
CONTINUOUS
 10
3.1318607067999999
 20
7.3814517104000004
 30
0.0
 11
2.1133567697000002
 21
7.3814517104000004
 31
0.0
  0
LINE
  5
9E
100
AcDbEntity
100
AcDbLine
  8
0
 62
7
370
15
  6
CONTINUOUS
 10
3.1318607067999999
 20
7.3814517104000004
 30
0.0
 11
3.1318607067999999
 21
7.2524712904999999
 31
0.0
  0
LINE
  5
9F
100
AcDbEntity
100
AcDbLine
  8
0
 62
7
370
15
  6
CONTINUOUS
 10
1.6133567697
 20
6.8993021976
 30
0.0
 11
1.5846166123000001
 21
6.8993021976
 31
0.0
  0
LINE
  5
A0
100
AcDbEntity
100
AcDbLine
  8
0
 62
7
370
15
  6
CONTINUOUS
 10
1.5846166123000001
 20
6.8993021976
 30
0.0
 11
1.5846166123000001
 21
6.8657835309999999
 31
0.0
  0
LINE
  5
A1
100
AcDbEntity
100
AcDbLine
  8
0
 62
7
370
15
  6
CONTINUOUS
 10
1.5846166123000001
 20
6.8657835309999999
 30
0.0
 11
1.6133567697
 21
6.8657835309999999
 31
0.0
  0
LINE
  5
A2
100
AcDbEntity
100
AcDbLine
  8
0
 62
7
370
15
  6
CONTINUOUS
 10
1.6133567697
 20
6.8657835309999999
 30
0.0
 11
1.6133567697
 21
6.8993021976
 31
0.0
  0
LINE
  5
A3
100
AcDbEntity
100
AcDbLine
  8
0
 62
7
370
15
  6
CONTINUOUS
 10
2.1082386595
 20
6.7869201093999996
 30
0.0
 11
2.0320575570999999
 21
6.7869201093999996
 31
0.0
  0
LINE
  5
A4
100
AcDbEntity
100
AcDbLine
  8
0
 62
7
370
15
  6
CONTINUOUS
 10
2.0320575570999999
 20
6.7869201093999996
 30
0.0
 11
2.0320575570999999
 21
6.7818019990999998
 31
0.0
  0
LINE
  5
A5
100
AcDbEntity
100
AcDbLine
  8
0
 62
7
370
15
  6
CONTINUOUS
 10
2.0320575570999999
 20
6.7818019990999998
 30
0.0
 11
2.1107977145999999
 21
6.7818019990999998
 31
0.0
  0
LINE
  5
A6
100
AcDbEntity
100
AcDbLine
  8
0
 62
7
370
15
  6
CONTINUOUS
 10
2.1107977145999999
 20
6.3125106605000001
 30
0.0
 11
1.0871756673999999
 21
6.3125106605000001
 31
0.0
  0
LINE
  5
A7
100
AcDbEntity
100
AcDbLine
  8
0
 62
7
370
15
  6
CONTINUOUS
 10
1.0871756673999999
 20
6.3125106605000001
 30
0.0
 11
1.0871756673999999
 21
6.7818019990999998
 31
0.0
  0
LINE
  5
A8
100
AcDbEntity
100
AcDbLine
  8
0
 62
7
370
15
  6
CONTINUOUS
 10
1.0871756673999999
 20
6.7818019990999998
 30
0.0
 11
1.1659158248999999
 21
6.7818019990999998
 31
0.0
  0
LINE
  5
A9
100
AcDbEntity
100
AcDbLine
  8
0
 62
7
370
15
  6
CONTINUOUS
 10
1.1659158248999999
 20
6.7818019990999998
 30
0.0
 11
1.1659158248999999
 21
6.7869201093999996
 31
0.0
  0
LINE
  5
AA
100
AcDbEntity
100
AcDbLine
  8
0
 62
7
370
15
  6
CONTINUOUS
 10
1.1659158248999999
 20
6.7869201093999996
 30
0.0
 11
1.0871756673999999
 21
6.7869201093999996
 31
0.0
  0
LINE
  5
AB
100
AcDbEntity
100
AcDbLine
  8
0
 62
7
370
15
  6
CONTINUOUS
 10
1.0871756673999999
 20
6.7869201093999996
 30
0.0
 11
1.0871756673999999
 21
6.8798334951999998
 31
0.0
  0
LINE
  5
AC
100
AcDbEntity
100
AcDbLine
  8
0
 62
7
370
15
  6
CONTINUOUS
 10
1.0871756673999999
 20
6.8798334951999998
 30
0.0
 11
1.1659158248999999
 21
6.8798334951999998
 31
0.0
  0
LINE
  5
AD
100
AcDbEntity
100
AcDbLine
  8
0
 62
7
370
15
  6
CONTINUOUS
 10
1.1659158248999999
 20
6.8798334951999998
 30
0.0
 11
1.1659158248999999
 21
6.8849516054000004
 31
0.0
  0
LINE
  5
AE
100
AcDbEntity
100
AcDbLine
  8
0
 62
7
370
15
  6
CONTINUOUS
 10
1.1659158248999999
 20
6.8849516054000004
 30
0.0
 11
1.0871756673999999
 21
6.8849516054000004
 31
0.0
  0
LINE
  5
AF
100
AcDbEntity
100
AcDbLine
  8
0
 62
7
370
15
  6
CONTINUOUS
 10
1.0871756673999999
 20
6.8849516054000004
 30
0.0
 11
1.0871756673999999
 21
7.2473531802000002
 31
0.0
  0
LINE
  5
B0
100
AcDbEntity
100
AcDbLine
  8
0
 62
7
370
15
  6
CONTINUOUS
 10
1.0871756673999999
 20
7.2473531802000002
 30
0.0
 11
1.1659158248999999
 21
7.2473531802000002
 31
0.0
  0
LINE
  5
B1
100
AcDbEntity
100
AcDbLine
  8
0
 62
7
370
15
  6
CONTINUOUS
 10
1.1659158248999999
 20
7.2473531802000002
 30
0.0
 11
1.1659158248999999
 21
7.2524712904999999
 31
0.0
  0
LINE
  5
B2
100
AcDbEntity
100
AcDbLine
  8
0
 62
7
370
15
  6
CONTINUOUS
 10
1.1659158248999999
 20
7.2524712904999999
 30
0.0
 11
1.0871756673999999
 21
7.2524712904999999
 31
0.0
  0
LINE
  5
B3
100
AcDbEntity
100
AcDbLine
  8
0
 62
7
370
15
  6
CONTINUOUS
 10
1.0871756673999999
 20
7.2524712904999999
 30
0.0
 11
1.0871756673999999
 21
7.3814517104000004
 31
0.0
  0
LINE
  5
B4
100
AcDbEntity
100
AcDbLine
  8
0
 62
7
370
15
  6
CONTINUOUS
 10
2.1082386595
 20
7.3814517104000004
 30
0.0
 11
1.0871756673999999
 21
7.3814517104000004
 31
0.0
  0
LINE
  5
B5
100
AcDbEntity
100
AcDbLine
  8
0
 62
7
370
15
  6
CONTINUOUS
 10
2.1082386595
 20
7.3814517104000004
 30
0.0
 11
2.1082386595
 21
7.2524712904999999
 31
0.0
  0
LINE
  5
B6
100
AcDbEntity
100
AcDbLine
  8
0
 62
7
370
15
  6
CONTINUOUS
 10
2.1082386595
 20
7.2524712904999999
 30
0.0
 11
2.0320575570999999
 21
7.2524712904999999
 31
0.0
  0
LINE
  5
B7
100
AcDbEntity
100
AcDbLine
  8
0
 62
7
370
15
  6
CONTINUOUS
 10
2.0320575570999999
 20
7.2524712904999999
 30
0.0
 11
2.0320575570999999
 21
7.2473531802000002
 31
0.0
  0
LINE
  5
B8
100
AcDbEntity
100
AcDbLine
  8
0
 62
7
370
15
  6
CONTINUOUS
 10
2.0320575570999999
 20
7.2473531802000002
 30
0.0
 11
2.1107977145999999
 21
7.2473531802000002
 31
0.0
  0
LINE
  5
B9
100
AcDbEntity
100
AcDbLine
  8
0
 62
7
370
15
  6
CONTINUOUS
 10
2.1107977145999999
 20
6.8849516054000004
 30
0.0
 11
2.0320575570999999
 21
6.8849516054000004
 31
0.0
  0
LINE
  5
BA
100
AcDbEntity
100
AcDbLine
  8
0
 62
7
370
15
  6
CONTINUOUS
 10
2.0320575570999999
 20
6.8849516054000004
 30
0.0
 11
2.0320575570999999
 21
6.8802271959999999
 31
0.0
  0
LINE
  5
BB
100
AcDbEntity
100
AcDbLine
  8
0
 62
7
370
15
  6
CONTINUOUS
 10
2.0320575570999999
 20
6.8802271959999999
 30
0.0
 11
2.1082386595
 21
6.8802271959999999
 31
0.0
  0
LINE
  5
BC
100
AcDbEntity
100
AcDbLine
  8
0
 62
7
370
15
  6
CONTINUOUS
 10
2.1082386595
 20
6.8802271959999999
 30
0.0
 11
2.1082386595
 21
6.7869201093999996
 31
0.0
  0
LINE
  5
BD
100
AcDbEntity
100
AcDbLine
  8
0
 62
7
370
15
  6
CONTINUOUS
 10
3.6606008642000001
 20
6.9052077093999999
 30
0.0
 11
3.6318607067999999
 21
6.9052077093999999
 31
0.0
  0
LINE
  5
BE
100
AcDbEntity
100
AcDbLine
  8
0
 62
7
370
15
  6
CONTINUOUS
 10
3.6318607067999999
 20
6.9052077093999999
 30
0.0
 11
3.6318607067999999
 21
6.8598780192
 31
0.0
  0
LINE
  5
BF
100
AcDbEntity
100
AcDbLine
  8
0
 62
7
370
15
  6
CONTINUOUS
 10
3.6318607067999999
 20
6.8598780192
 30
0.0
 11
3.6606008642000001
 21
6.8598780192
 31
0.0
  0
LINE
  5
C0
100
AcDbEntity
100
AcDbLine
  8
0
 62
7
370
15
  6
CONTINUOUS
 10
3.6606008642000001
 20
6.8598780192
 30
0.0
 11
3.6606008642000001
 21
6.9052077093999999
 31
0.0
  0
LINE
  5
C1
100
AcDbEntity
100
AcDbLine
  8
0
 62
7
370
15
  6
CONTINUOUS
 10
3.1369788170000001
 20
6.8798334951999998
 30
0.0
 11
3.2131599193999998
 21
6.8798334951999998
 31
0.0
  0
LINE
  5
C2
100
AcDbEntity
100
AcDbLine
  8
0
 62
7
370
15
  6
CONTINUOUS
 10
3.2131599193999998
 20
6.8798334951999998
 30
0.0
 11
3.2131599193999998
 21
6.8849516054000004
 31
0.0
  0
LINE
  5
C3
100
AcDbEntity
100
AcDbLine
  8
0
 62
7
370
15
  6
CONTINUOUS
 10
3.2131599193999998
 20
6.8849516054000004
 30
0.0
 11
3.1344197618999998
 21
6.8849516054000004
 31
0.0
  0
LINE
  5
C4
100
AcDbEntity
100
AcDbLine
  8
0
 62
7
370
15
  6
CONTINUOUS
 10
3.1344197618999998
 20
7.2473531802000002
 30
0.0
 11
3.2131599193999998
 21
7.2473531802000002
 31
0.0
  0
LINE
  5
C5
100
AcDbEntity
100
AcDbLine
  8
0
 62
7
370
15
  6
CONTINUOUS
 10
3.2131599193999998
 20
7.2473531802000002
 30
0.0
 11
3.2131599193999998
 21
7.2524712904999999
 31
0.0
  0
LINE
  5
C6
100
AcDbEntity
100
AcDbLine
  8
0
 62
7
370
15
  6
CONTINUOUS
 10
3.2131599193999998
 20
7.2524712904999999
 30
0.0
 11
3.1369788170000001
 21
7.2524712904999999
 31
0.0
  0
LINE
  5
C7
100
AcDbEntity
100
AcDbLine
  8
0
 62
7
370
15
  6
CONTINUOUS
 10
3.1369788170000001
 20
7.2524712904999999
 30
0.0
 11
3.1369788170000001
 21
7.3814517104000004
 31
0.0
  0
LINE
  5
C8
100
AcDbEntity
100
AcDbLine
  8
0
 62
7
370
15
  6
CONTINUOUS
 10
4.1580418091000002
 20
7.3814517104000004
 30
0.0
 11
3.1369788170000001
 21
7.3814517104000004
 31
0.0
  0
LINE
  5
C9
100
AcDbEntity
100
AcDbLine
  8
0
 62
7
370
15
  6
CONTINUOUS
 10
4.1580418091000002
 20
7.2524712904999999
 30
0.0
 11
4.1580418091000002
 21
7.3814517104000004
 31
0.0
  0
LINE
  5
CA
100
AcDbEntity
100
AcDbLine
  8
0
 62
7
370
15
  6
CONTINUOUS
 10
4.1580418091000002
 20
7.2524712904999999
 30
0.0
 11
4.0793016515999998
 21
7.2524712904999999
 31
0.0
  0
LINE
  5
CB
100
AcDbEntity
100
AcDbLine
  8
0
 62
7
370
15
  6
CONTINUOUS
 10
4.0793016515999998
 20
7.2524712904999999
 30
0.0
 11
4.0793016515999998
 21
7.2473531802000002
 31
0.0
  0
LINE
  5
CC
100
AcDbEntity
100
AcDbLine
  8
0
 62
7
370
15
  6
CONTINUOUS
 10
4.0793016515999998
 20
7.2473531802000002
 30
0.0
 11
4.1580418091000002
 21
7.2473531802000002
 31
0.0
  0
LINE
  5
CD
100
AcDbEntity
100
AcDbLine
  8
0
 62
7
370
15
  6
CONTINUOUS
 10
4.1580418091000002
 20
6.8849516054000004
 30
0.0
 11
4.1580418091000002
 21
7.2473531802000002
 31
0.0
  0
LINE
  5
CE
100
AcDbEntity
100
AcDbLine
  8
0
 62
7
370
15
  6
CONTINUOUS
 10
4.1580418091000002
 20
6.8849516054000004
 30
0.0
 11
4.0793016515999998
 21
6.8849516054000004
 31
0.0
  0
LINE
  5
CF
100
AcDbEntity
100
AcDbLine
  8
0
 62
7
370
15
  6
CONTINUOUS
 10
4.0793016515999998
 20
6.8849516054000004
 30
0.0
 11
4.0793016515999998
 21
6.8802271959999999
 31
0.0
  0
LINE
  5
D0
100
AcDbEntity
100
AcDbLine
  8
0
 62
7
370
15
  6
CONTINUOUS
 10
4.0793016515999998
 20
6.8802271959999999
 30
0.0
 11
4.1580418091000002
 21
6.8802271959999999
 31
0.0
  0
LINE
  5
D1
100
AcDbEntity
100
AcDbLine
  8
0
 62
7
370
15
  6
CONTINUOUS
 10
4.1580418091000002
 20
6.7869201093999996
 30
0.0
 11
4.1580418091000002
 21
6.8802271959999999
 31
0.0
  0
LINE
  5
D2
100
AcDbEntity
100
AcDbLine
  8
0
 62
7
370
15
  6
CONTINUOUS
 10
4.1580418091000002
 20
6.7869201093999996
 30
0.0
 11
4.0793016515999998
 21
6.7869201093999996
 31
0.0
  0
LINE
  5
D3
100
AcDbEntity
100
AcDbLine
  8
0
 62
7
370
15
  6
CONTINUOUS
 10
4.0793016515999998
 20
6.7869201093999996
 30
0.0
 11
4.0793016515999998
 21
6.7818019990999998
 31
0.0
  0
LINE
  5
D4
100
AcDbEntity
100
AcDbLine
  8
0
 62
7
370
15
  6
CONTINUOUS
 10
4.0793016515999998
 20
6.7818019990999998
 30
0.0
 11
4.1580418091000002
 21
6.7818019990999998
 31
0.0
  0
LINE
  5
D5
100
AcDbEntity
100
AcDbLine
  8
0
 62
7
370
15
  6
CONTINUOUS
 10
4.1580418091000002
 20
6.3125106605000001
 30
0.0
 11
4.1580418091000002
 21
6.7818019990999998
 31
0.0
  0
LINE
  5
D6
100
AcDbEntity
100
AcDbLine
  8
0
 62
7
370
15
  6
CONTINUOUS
 10
4.1580418091000002
 20
6.3125106605000001
 30
0.0
 11
3.1344197618999998
 21
6.3125106605000001
 31
0.0
  0
LINE
  5
D7
100
AcDbEntity
100
AcDbLine
  8
0
 62
7
370
15
  6
CONTINUOUS
 10
3.1344197618999998
 20
6.7818019990999998
 30
0.0
 11
3.2131599193999998
 21
6.7818019990999998
 31
0.0
  0
LINE
  5
D8
100
AcDbEntity
100
AcDbLine
  8
0
 62
7
370
15
  6
CONTINUOUS
 10
3.2131599193999998
 20
6.7818019990999998
 30
0.0
 11
3.2131599193999998
 21
6.7869201093999996
 31
0.0
  0
LINE
  5
D9
100
AcDbEntity
100
AcDbLine
  8
0
 62
7
370
15
  6
CONTINUOUS
 10
3.2131599193999998
 20
6.7869201093999996
 30
0.0
 11
3.1369788170000001
 21
6.7869201093999996
 31
0.0
  0
LINE
  5
DA
100
AcDbEntity
100
AcDbLine
  8
0
 62
7
370
15
  6
CONTINUOUS
 10
3.1369788170000001
 20
6.7869201093999996
 30
0.0
 11
3.1369788170000001
 21
6.8798334951999998
 31
0.0
  0
ENDSEC
  0
SECTION
  2
OBJECTS
  0
DICTIONARY
  5
C
100
AcDbDictionary
280
0
281
1
  3
ACAD_GROUP
350
D
  3
ACAD_LAYOUT
350
1A
  3
ACAD_MLINESTYLE
350
17
  3
ACAD_PLOTSETTINGS
350
19
  3
ACAD_PLOTSTYLENAME
350
E
  3
AcDbVariableDictionary
350
DB
  0
DICTIONARY
  5
D
100
AcDbDictionary
280
0
281
1
  0
ACDBDICTIONARYWDFLT
  5
E
100
AcDbDictionary
281
1
  3
Normal
350
F
100
AcDbDictionaryWithDefault
340
F
  0
ACDBPLACEHOLDER
  5
F
  0
DICTIONARY
  5
17
100
AcDbDictionary
280
0
281
1
  3
Standard
350
18
  0
MLINESTYLE
  5
18
100
AcDbMlineStyle
  2
STANDARD
 70
0
  3

 62
256
 51
90.0
 52
90.0
 71
2
 49
0.5
 62
256
  6
BYLAYER
 49
-0.5
 62
256
  6
BYLAYER
  0
DICTIONARY
  5
19
100
AcDbDictionary
280
0
281
1
  0
DICTIONARY
  5
1A
100
AcDbDictionary
281
1
  3
Layout1
350
1E
  3
Layout2
350
26
  3
Model
350
22
  0
LAYOUT
  5
1E
100
AcDbPlotSettings
  1

  2
C:\Program Files\AutoCAD 2002\plotters\DWF ePlot (optimized for plotting).pc3
  4

  6

 40
0.0
 41
0.0
 42
0.0
 43
0.0
 44
0.0
 45
0.0
 46
0.0
 47
0.0
 48
0.0
 49
0.0
140
0.0
141
0.0
142
1.0
143
1.0
 70
688
 72
0
 73
0
 74
5
  7

 75
16
147
1.0
148
0.0
149
0.0
100
AcDbLayout
  1
Layout1
 70
1
 71
1
 10
0.0
 20
0.0
 11
420.0
 21
297.0
 12
0.0
 22
0.0
 32
0.0
 14
100000000000000000000.0
 24
100000000000000000000.0
 34
100000000000000000000.0
 15
-100000000000000000000.0
 25
-100000000000000000000.0
 35
-100000000000000000000.0
146
0.0
 13
0.0
 23
0.0
 33
0.0
 16
1.0
 26
0.0
 36
0.0
 17
0.0
 27
1.0
 37
0.0
 76
0
330
1B
  0
LAYOUT
  5
22
100
AcDbPlotSettings
  1

  2
C:\Program Files\AutoCAD 2002\plotters\DWF ePlot (optimized for plotting).pc3
  4

  6

 40
0.0
 41
0.0
 42
0.0
 43
0.0
 44
0.0
 45
0.0
 46
0.0
 47
0.0
 48
0.0
 49
0.0
140
0.0
141
0.0
142
1.0
143
1.0
 70
1712
 72
0
 73
0
 74
0
  7

 75
0
147
1.0
148
0.0
149
0.0
100
AcDbLayout
  1
Model
 70
1
 71
0
 10
0.0
 20
0.0
 11
12.0
 21
9.0
 12
0.0
 22
0.0
 32
0.0
 14
0.0
 24
0.0
 34
0.0
 15
0.0
 25
0.0
 35
0.0
146
0.0
 13
0.0
 23
0.0
 33
0.0
 16
1.0
 26
0.0
 36
0.0
 17
0.0
 27
1.0
 37
0.0
 76
0
330
1F
  0
LAYOUT
  5
26
100
AcDbPlotSettings
  1

  2
C:\Program Files\AutoCAD 2002\plotters\DWF ePlot (optimized for plotting).pc3
  4

  6

 40
0.0
 41
0.0
 42
0.0
 43
0.0
 44
0.0
 45
0.0
 46
0.0
 47
0.0
 48
0.0
 49
0.0
140
0.0
141
0.0
142
1.0
143
1.0
 70
688
 72
0
 73
0
 74
5
  7

 75
16
147
1.0
148
0.0
149
0.0
100
AcDbLayout
  1
Layout2
 70
1
 71
2
 10
0.0
 20
0.0
 11
12.0
 21
9.0
 12
0.0
 22
0.0
 32
0.0
 14
0.0
 24
0.0
 34
0.0
 15
0.0
 25
0.0
 35
0.0
146
0.0
 13
0.0
 23
0.0
 33
0.0
 16
1.0
 26
0.0
 36
0.0
 17
0.0
 27
1.0
 37
0.0
 76
0
330
23
  0
DICTIONARY
  5
DB
100
AcDbDictionary
281
1
  3
DIMASSOC
350
DD
  3
HIDETEXT
350
DC
  0
DICTIONARYVAR
  5
DC
100
DictionaryVariables
280
0
  1
2
  0
DICTIONARYVAR
  5
DD
100
DictionaryVariables
280
0
  1
1
  0
ENDSEC
  0
EOF
